<svg width="343" height="50" viewBox="0 0 343 50" fill="none" xmlns="http://www.w3.org/2000/svg">
<rect width="343" height="50" fill="white"/>
<path d="M46.52 3.34L46.46 3.4C46.7 2.52 47.16 1.88 47.84 1.48C48.56 1.08 49.5 0.979997 50.66 1.18C51.82 1.38 52.64 1.74 53.12 2.26C53.64 2.78 53.76 3.5 53.48 4.42L42.68 47.44V47.38C42.48 48.06 42.02 48.58 41.3 48.94C40.62 49.3 39.9 49.48 39.14 49.48C38.26 49.48 37.42 49.34 36.62 49.06C35.86 48.82 35.38 48.3 35.18 47.5L35.24 47.56L27.86 18.28H26.24L18.92 47.5C18.72 48.18 18.22 48.68 17.42 49C16.62 49.32 15.8 49.48 14.96 49.48C13.92 49.48 13.08 49.32 12.44 49C11.84 48.72 11.44 48.2 11.24 47.44L11.3 47.5L0.5 4.42C0.3 3.62 0.48 2.94 1.04 2.38C1.6 1.78 2.4 1.38 3.44 1.18C5.68 0.819997 7.04 1.56 7.52 3.4L7.46 3.34L10.16 14.2C10.52 15.64 10.88 17.12 11.24 18.64C11.6 20.12 12 21.72 12.44 23.44C12.88 25.12 13.36 26.96 13.88 28.96C14.4 30.96 14.98 33.2 15.62 35.68L23.3 3.28C23.5 2.4 23.96 1.82 24.68 1.54C25.4 1.26 26.2 1.12 27.08 1.12C27.88 1.12 28.66 1.28 29.42 1.6C30.18 1.88 30.66 2.48 30.86 3.4L38.78 35.5L46.52 3.34Z" fill="#F00303"/>
<path d="M62.7767 49.06C61.2967 49.06 60.2967 48.68 59.7767 47.92C59.2567 47.16 58.9967 46.32 58.9967 45.4V4.96C58.9967 4.04 59.2567 3.22 59.7767 2.5C60.2967 1.74 61.2967 1.36 62.7767 1.36H83.6567C85.1367 1.36 85.9167 2.36 85.9967 4.36C86.0767 6.4 85.2967 7.42 83.6567 7.42H66.0767V43H84.7367C86.2167 43 86.9767 43.98 87.0167 45.94C87.0967 48.02 86.3367 49.06 84.7367 49.06H62.7767ZM81.4367 24.22C81.4367 25.62 80.9367 26.8 79.9367 27.76C78.9767 28.72 77.7967 29.2 76.3967 29.2C75.0367 29.2 73.8767 28.72 72.9167 27.76C71.9567 26.8 71.4767 25.62 71.4767 24.22C71.4767 22.82 71.9567 21.64 72.9167 20.68C73.8767 19.72 75.0367 19.24 76.3967 19.24C77.7967 19.24 78.9767 19.72 79.9367 20.68C80.9367 21.64 81.4367 22.82 81.4367 24.22Z" fill="#030E04"/>
<path d="M109.287 7.24L96.147 47.56V47.5C95.907 48.1 95.567 48.6 95.127 49C94.727 49.36 94.227 49.54 93.627 49.54C93.307 49.54 92.987 49.5 92.667 49.42C92.387 49.38 92.087 49.32 91.767 49.24H91.827C89.547 48.52 88.707 47.24 89.307 45.4L102.987 3.82C103.187 3.18 103.527 2.64 104.007 2.2C104.527 1.76 105.127 1.5 105.807 1.42C106.487 1.3 107.147 1.22 107.787 1.18C108.427 1.1 108.927 1.06 109.287 1.06C109.647 1.06 110.147 1.1 110.787 1.18C111.427 1.22 112.087 1.28 112.767 1.36C113.327 1.44 113.867 1.74 114.387 2.26C114.947 2.78 115.367 3.3 115.647 3.82C117.887 10.7 120.147 17.64 122.427 24.64C124.747 31.6 127.027 38.52 129.267 45.4C129.827 47.24 128.987 48.52 126.747 49.24C126.427 49.32 126.127 49.38 125.847 49.42C125.607 49.5 125.327 49.54 125.007 49.54C124.447 49.54 123.927 49.36 123.447 49C123.007 48.6 122.687 48.1 122.487 47.5V47.56L109.287 7.24ZM113.787 34.6C113.787 35.88 113.327 36.98 112.407 37.9C111.527 38.78 110.447 39.22 109.167 39.22C107.887 39.22 106.807 38.78 105.927 37.9C105.047 36.98 104.607 35.88 104.607 34.6C104.607 33.32 105.047 32.24 105.927 31.36C106.807 30.44 107.887 29.98 109.167 29.98C110.447 29.98 111.527 30.44 112.407 31.36C113.327 32.24 113.787 33.32 113.787 34.6Z" fill="#010511"/>
<path d="M151.62 29.26H147C146.32 29.26 145.78 29 145.38 28.48C145.02 27.92 144.84 27.18 144.84 26.26C144.84 24.22 145.68 23.2 147.36 23.2H154.38C155.86 23.2 156.9 22.78 157.5 21.94C158.1 21.1 158.4 20.18 158.4 19.18V11.44C158.4 10.44 158.1 9.52 157.5 8.68C156.9 7.84 155.86 7.42 154.38 7.42H141.72V46.54C141.72 48.46 140.54 49.42 138.18 49.42C135.82 49.42 134.64 48.46 134.64 46.54V4.96C134.64 3.52 135 2.56 135.72 2.08C136.48 1.6 137.38 1.36 138.42 1.36H155.88C156.92 1.36 158 1.58 159.12 2.02C160.24 2.46 161.32 3.02 162.36 3.7H162.3C163.34 4.46 164.14 5.46 164.7 6.7C165.26 7.9 165.54 9.3 165.54 10.9V19.66C165.54 22.9 164.46 25.32 162.3 26.92C161.86 27.24 161.38 27.54 160.86 27.82C160.38 28.1 159.88 28.38 159.36 28.66L168.96 44.5C169.08 44.7 169.2 44.96 169.32 45.28C169.44 45.6 169.5 45.86 169.5 46.06C169.5 47.02 168.82 47.94 167.46 48.82V48.76C166.54 49.32 165.76 49.6 165.12 49.6C164.2 49.6 163.46 49.14 162.9 48.22L162.96 48.28L151.62 29.26Z" fill="#110E11"/>
<path d="M217.79 3.34L217.73 3.4C217.97 2.52 218.43 1.88 219.11 1.48C219.83 1.08 220.77 0.979997 221.93 1.18C223.09 1.38 223.91 1.74 224.39 2.26C224.91 2.78 225.03 3.5 224.75 4.42L213.95 47.44V47.38C213.75 48.06 213.29 48.58 212.57 48.94C211.89 49.3 211.17 49.48 210.41 49.48C209.53 49.48 208.69 49.34 207.89 49.06C207.13 48.82 206.65 48.3 206.45 47.5L206.51 47.56L199.13 18.28H197.51L190.19 47.5C189.99 48.18 189.49 48.68 188.69 49C187.89 49.32 187.07 49.48 186.23 49.48C185.19 49.48 184.35 49.32 183.71 49C183.11 48.72 182.71 48.2 182.51 47.44L182.57 47.5L171.77 4.42C171.57 3.62 171.75 2.94 172.31 2.38C172.87 1.78 173.67 1.38 174.71 1.18C176.95 0.819997 178.31 1.56 178.79 3.4L178.73 3.34L181.43 14.2C181.79 15.64 182.15 17.12 182.51 18.64C182.87 20.12 183.27 21.72 183.71 23.44C184.15 25.12 184.63 26.96 185.15 28.96C185.67 30.96 186.25 33.2 186.89 35.68L194.57 3.28C194.77 2.4 195.23 1.82 195.95 1.54C196.67 1.26 197.47 1.12 198.35 1.12C199.15 1.12 199.93 1.28 200.69 1.6C201.45 1.88 201.93 2.48 202.13 3.4L210.05 35.5L217.79 3.34ZM342.966 44.08C342.966 45.44 342.506 46.6 341.586 47.56C340.666 48.48 339.526 48.94 338.166 48.94C336.806 48.94 335.666 48.48 334.746 47.56C333.826 46.6 333.366 45.44 333.366 44.08C333.366 42.76 333.826 41.64 334.746 40.72C335.666 39.76 336.806 39.28 338.166 39.28C339.526 39.28 340.666 39.76 341.586 40.72C342.506 41.64 342.966 42.76 342.966 44.08Z" fill="#F30000"/>
<path d="M234.046 49.06C232.566 49.06 231.566 48.68 231.046 47.92C230.526 47.16 230.266 46.32 230.266 45.4V4.96C230.266 4.04 230.526 3.22 231.046 2.5C231.566 1.74 232.566 1.36 234.046 1.36H254.926C256.406 1.36 257.186 2.36 257.266 4.36C257.346 6.4 256.566 7.42 254.926 7.42H237.346V43H256.006C257.486 43 258.246 43.98 258.286 45.94C258.366 48.02 257.606 49.06 256.006 49.06H234.046ZM252.706 24.22C252.706 25.62 252.206 26.8 251.206 27.76C250.246 28.72 249.066 29.2 247.666 29.2C246.306 29.2 245.146 28.72 244.186 27.76C243.226 26.8 242.746 25.62 242.746 24.22C242.746 22.82 243.226 21.64 244.186 20.68C245.146 19.72 246.306 19.24 247.666 19.24C249.066 19.24 250.246 19.72 251.206 20.68C252.206 21.64 252.706 22.82 252.706 24.22Z" fill="#150C0C"/>
<path d="M268.557 49.06C267.077 49.06 266.077 48.68 265.557 47.92C265.037 47.16 264.777 46.32 264.777 45.4V3.94C264.777 2.02 265.937 1.06 268.257 1.06C270.657 1.06 271.857 2.02 271.857 3.94V43H291.897C293.337 43 294.057 43.98 294.057 45.94C294.137 48.02 293.417 49.06 291.897 49.06H268.557Z" fill="#110A04"/>
<path d="M303.361 49.06C301.881 49.06 300.881 48.68 300.361 47.92C299.841 47.16 299.581 46.32 299.581 45.4V3.94C299.581 2.02 300.741 1.06 303.061 1.06C305.461 1.06 306.661 2.02 306.661 3.94V43H326.701C328.141 43 328.861 43.98 328.861 45.94C328.941 48.02 328.221 49.06 326.701 49.06H303.361Z" fill="#020D0B"/>
</svg>
