<svg width="230" height="34" viewBox="0 0 230 34" fill="none" xmlns="http://www.w3.org/2000/svg">
<rect width="230" height="34" fill="white"/>
<path d="M31.68 2.56L31.64 2.6C31.8 2.01333 32.1067 1.58666 32.56 1.32C33.04 1.05333 33.6667 0.986665 34.44 1.12C35.2133 1.25333 35.76 1.49333 36.08 1.84C36.4267 2.18667 36.5067 2.66667 36.32 3.28L29.12 31.96V31.92C28.9867 32.3733 28.68 32.72 28.2 32.96C27.7467 33.2 27.2667 33.32 26.76 33.32C26.1733 33.32 25.6133 33.2267 25.08 33.04C24.5733 32.88 24.2533 32.5333 24.12 32L24.16 32.04L19.24 12.52H18.16L13.28 32C13.1467 32.4533 12.8133 32.7867 12.28 33C11.7467 33.2133 11.2 33.32 10.64 33.32C9.94667 33.32 9.38667 33.2133 8.96 33C8.56 32.8133 8.29333 32.4667 8.16 31.96L8.2 32L1 3.28C0.866667 2.74667 0.986667 2.29333 1.36 1.92C1.73333 1.52 2.26667 1.25333 2.96 1.12C4.45333 0.879998 5.36 1.37333 5.68 2.6L5.64 2.56L7.44 9.8C7.68 10.76 7.92 11.7467 8.16 12.76C8.4 13.7467 8.66667 14.8133 8.96 15.96C9.25333 17.08 9.57333 18.3067 9.92 19.64C10.2667 20.9733 10.6533 22.4667 11.08 24.12L16.2 2.52C16.3333 1.93333 16.64 1.54667 17.12 1.36C17.6 1.17333 18.1333 1.08 18.72 1.08C19.2533 1.08 19.7733 1.18667 20.28 1.4C20.7867 1.58666 21.1067 1.98666 21.24 2.6L26.52 24L31.68 2.56Z" fill="#F00303"/>
<path d="M42.5178 33.04C41.5311 33.04 40.8645 32.7867 40.5178 32.28C40.1711 31.7733 39.9978 31.2133 39.9978 30.6V3.64C39.9978 3.02667 40.1711 2.48 40.5178 2C40.8645 1.49333 41.5311 1.24 42.5178 1.24H56.4378C57.4245 1.24 57.9445 1.90667 57.9978 3.24C58.0511 4.6 57.5311 5.28 56.4378 5.28H44.7178V29H57.1578C58.1445 29 58.6511 29.6533 58.6778 30.96C58.7311 32.3467 58.2245 33.04 57.1578 33.04H42.5178ZM54.9578 16.48C54.9578 17.4133 54.6245 18.2 53.9578 18.84C53.3178 19.48 52.5311 19.8 51.5978 19.8C50.6911 19.8 49.9178 19.48 49.2778 18.84C48.6378 18.2 48.3178 17.4133 48.3178 16.48C48.3178 15.5467 48.6378 14.76 49.2778 14.12C49.9178 13.48 50.6911 13.16 51.5978 13.16C52.5311 13.16 53.3178 13.48 53.9578 14.12C54.6245 14.76 54.9578 15.5467 54.9578 16.48Z" fill="#030E04"/>
<path d="M73.5247 5.16L64.7647 32.04V32C64.6047 32.4 64.378 32.7333 64.0847 33C63.818 33.24 63.4847 33.36 63.0847 33.36C62.8714 33.36 62.658 33.3333 62.4447 33.28C62.258 33.2533 62.058 33.2133 61.8447 33.16H61.8847C60.3647 32.68 59.8047 31.8267 60.2047 30.6L69.3247 2.88C69.458 2.45333 69.6847 2.09333 70.0047 1.8C70.3514 1.50667 70.7514 1.33333 71.2047 1.28C71.658 1.2 72.098 1.14666 72.5247 1.12C72.9514 1.06667 73.2847 1.04 73.5247 1.04C73.7647 1.04 74.098 1.06667 74.5247 1.12C74.9514 1.14666 75.3914 1.18666 75.8447 1.24C76.218 1.29333 76.578 1.49333 76.9247 1.84C77.298 2.18667 77.578 2.53333 77.7647 2.88C79.258 7.46667 80.7647 12.0933 82.2847 16.76C83.8314 21.4 85.3514 26.0133 86.8447 30.6C87.218 31.8267 86.658 32.68 85.1647 33.16C84.9514 33.2133 84.7514 33.2533 84.5647 33.28C84.4047 33.3333 84.218 33.36 84.0047 33.36C83.6314 33.36 83.2847 33.24 82.9647 33C82.6714 32.7333 82.458 32.4 82.3247 32V32.04L73.5247 5.16ZM76.5247 23.4C76.5247 24.2533 76.218 24.9867 75.6047 25.6C75.018 26.1867 74.298 26.48 73.4447 26.48C72.5914 26.48 71.8714 26.1867 71.2847 25.6C70.698 24.9867 70.4047 24.2533 70.4047 23.4C70.4047 22.5467 70.698 21.8267 71.2847 21.24C71.8714 20.6267 72.5914 20.32 73.4447 20.32C74.298 20.32 75.018 20.6267 75.6047 21.24C76.218 21.8267 76.5247 22.5467 76.5247 23.4Z" fill="#010511"/>
<path d="M101.747 19.84H98.6666C98.2132 19.84 97.8532 19.6667 97.5866 19.32C97.3466 18.9467 97.2266 18.4533 97.2266 17.84C97.2266 16.48 97.7866 15.8 98.9066 15.8H103.587C104.573 15.8 105.267 15.52 105.667 14.96C106.067 14.4 106.267 13.7867 106.267 13.12V7.96C106.267 7.29333 106.067 6.68 105.667 6.12C105.267 5.56 104.573 5.28 103.587 5.28H95.1466V31.36C95.1466 32.64 94.3599 33.28 92.7866 33.28C91.2132 33.28 90.4266 32.64 90.4266 31.36V3.64C90.4266 2.68 90.6666 2.04 91.1466 1.72C91.6532 1.4 92.2532 1.24 92.9466 1.24H104.587C105.28 1.24 106 1.38667 106.747 1.68C107.493 1.97333 108.213 2.34667 108.907 2.8H108.867C109.56 3.30666 110.093 3.97333 110.467 4.8C110.84 5.6 111.027 6.53333 111.027 7.6V13.44C111.027 15.6 110.307 17.2133 108.867 18.28C108.573 18.4933 108.253 18.6933 107.907 18.88C107.587 19.0667 107.253 19.2533 106.907 19.44L113.307 30C113.387 30.1333 113.467 30.3067 113.547 30.52C113.627 30.7333 113.667 30.9067 113.667 31.04C113.667 31.68 113.213 32.2933 112.307 32.88V32.84C111.693 33.2133 111.173 33.4 110.747 33.4C110.133 33.4 109.64 33.0933 109.267 32.48L109.307 32.52L101.747 19.84Z" fill="#110E11"/>
<path d="M145.86 2.56L145.82 2.6C145.98 2.01333 146.286 1.58666 146.74 1.32C147.22 1.05333 147.846 0.986665 148.62 1.12C149.393 1.25333 149.94 1.49333 150.26 1.84C150.606 2.18667 150.686 2.66667 150.5 3.28L143.3 31.96V31.92C143.166 32.3733 142.86 32.72 142.38 32.96C141.926 33.2 141.446 33.32 140.94 33.32C140.353 33.32 139.793 33.2267 139.26 33.04C138.753 32.88 138.433 32.5333 138.3 32L138.34 32.04L133.42 12.52H132.34L127.46 32C127.326 32.4533 126.993 32.7867 126.46 33C125.926 33.2133 125.38 33.32 124.82 33.32C124.126 33.32 123.566 33.2133 123.14 33C122.74 32.8133 122.473 32.4667 122.34 31.96L122.38 32L115.18 3.28C115.046 2.74667 115.166 2.29333 115.54 1.92C115.913 1.52 116.446 1.25333 117.14 1.12C118.633 0.879998 119.54 1.37333 119.86 2.6L119.82 2.56L121.62 9.8C121.86 10.76 122.1 11.7467 122.34 12.76C122.58 13.7467 122.846 14.8133 123.14 15.96C123.433 17.08 123.753 18.3067 124.1 19.64C124.446 20.9733 124.833 22.4667 125.26 24.12L130.38 2.52C130.513 1.93333 130.82 1.54667 131.3 1.36C131.78 1.17333 132.313 1.08 132.9 1.08C133.433 1.08 133.953 1.18667 134.46 1.4C134.966 1.58666 135.286 1.98666 135.42 2.6L140.7 24L145.86 2.56ZM229.311 29.72C229.311 30.6267 229.004 31.4 228.391 32.04C227.777 32.6533 227.017 32.96 226.111 32.96C225.204 32.96 224.444 32.6533 223.831 32.04C223.217 31.4 222.911 30.6267 222.911 29.72C222.911 28.84 223.217 28.0933 223.831 27.48C224.444 26.84 225.204 26.52 226.111 26.52C227.017 26.52 227.777 26.84 228.391 27.48C229.004 28.0933 229.311 28.84 229.311 29.72Z" fill="#F30000"/>
<path d="M156.698 33.04C155.711 33.04 155.044 32.7867 154.698 32.28C154.351 31.7733 154.178 31.2133 154.178 30.6V3.64C154.178 3.02667 154.351 2.48 154.698 2C155.044 1.49333 155.711 1.24 156.698 1.24H170.618C171.604 1.24 172.124 1.90667 172.178 3.24C172.231 4.6 171.711 5.28 170.618 5.28H158.898V29H171.338C172.324 29 172.831 29.6533 172.858 30.96C172.911 32.3467 172.404 33.04 171.338 33.04H156.698ZM169.138 16.48C169.138 17.4133 168.804 18.2 168.138 18.84C167.498 19.48 166.711 19.8 165.778 19.8C164.871 19.8 164.098 19.48 163.458 18.84C162.818 18.2 162.498 17.4133 162.498 16.48C162.498 15.5467 162.818 14.76 163.458 14.12C164.098 13.48 164.871 13.16 165.778 13.16C166.711 13.16 167.498 13.48 168.138 14.12C168.804 14.76 169.138 15.5467 169.138 16.48Z" fill="#150C0C"/>
<path d="M179.704 33.04C178.718 33.04 178.051 32.7867 177.704 32.28C177.358 31.7733 177.184 31.2133 177.184 30.6V2.96C177.184 1.68 177.958 1.04 179.504 1.04C181.104 1.04 181.904 1.68 181.904 2.96V29H195.264C196.224 29 196.704 29.6533 196.704 30.96C196.758 32.3467 196.278 33.04 195.264 33.04H179.704Z" fill="#110A04"/>
<path d="M202.908 33.04C201.921 33.04 201.254 32.7867 200.908 32.28C200.561 31.7733 200.388 31.2133 200.388 30.6V2.96C200.388 1.68 201.161 1.04 202.708 1.04C204.308 1.04 205.108 1.68 205.108 2.96V29H218.468C219.428 29 219.908 29.6533 219.908 30.96C219.961 32.3467 219.481 33.04 218.468 33.04H202.908Z" fill="#020D0B"/>
</svg>
